<?xml version="1.0" encoding="UTF-8" standalone="no"?>
<svg
   viewBox="0 0 100 100"
   version="1.1"
   id="svg1"
   sodipodi:docname="favicon.svg"
   inkscape:version="1.4.2 (ebf0e940d0, 2025-05-08)"
   inkscape:export-filename="favicon.png"
   inkscape:export-xdpi="192"
   inkscape:export-ydpi="192"
   xmlns:inkscape="http://www.inkscape.org/namespaces/inkscape"
   xmlns:sodipodi="http://sodipodi.sourceforge.net/DTD/sodipodi-0.dtd"
   xmlns="http://www.w3.org/2000/svg"
   xmlns:svg="http://www.w3.org/2000/svg">
  <defs
     id="defs1" />
  <sodipodi:namedview
     id="namedview1"
     pagecolor="#ffffff"
     bordercolor="#000000"
     borderopacity="0.25"
     inkscape:showpageshadow="2"
     inkscape:pageopacity="0.0"
     inkscape:pagecheckerboard="0"
     inkscape:deskcolor="#d1d1d1"
     inkscape:zoom="6.8349897"
     inkscape:cx="45.793778"
     inkscape:cy="50.329264"
     inkscape:window-width="1920"
     inkscape:window-height="983"
     inkscape:window-x="0"
     inkscape:window-y="0"
     inkscape:window-maximized="1"
     inkscape:current-layer="svg1" />
  <style
     id="style1">
    @media (prefers-color-scheme: dark) {
      svg { fill: white; }
    }
  </style>
  <path
     d="m 67.828098,82.715157 c 0,-2.720856 0.735772,-7.633735 1.635035,-10.917507 2.076574,-7.582764 3.222746,-16.97568 2.071477,-16.97568 -0.485619,0 -3.994408,3.173002 -7.797313,7.051115 -14.448869,14.734603 -29.952812,23.068339 -42.915946,23.068339 -7.400211,0 -12.4298817,-1.871115 -17.2867007,-6.430912 -2.94436188,-2.764297 -3.47532148,-4.129685 -3.47532148,-8.936928 0,-4.94488 0.4862322,-6.108589 3.78321148,-9.054437 2.987989,-2.669773 4.875111,-3.380296 8.9779137,-3.380296 3.163221,0.711278 5.032659,0.664017 6.063532,1.917191 1.045041,1.231842 1.406892,5.262673 0.143323,7.623675 -0.674746,1.260763 -2.435471,2.043539 -4.5966,2.043539 -2.040303,0 -3.203991,-0.483702 -2.786976,-1.15844 1.31395,-2.126021 -0.560952,-3.566616 -2.9664067,-2.279256 -2.907025,1.555792 -2.957418,7.069066 -0.08839,9.665535 4.0345357,3.651203 15.1912207,5.023925 21.9019857,2.694828 7.250749,-2.516503 16.739014,-8.578986 24.30831,-15.531674 l 6.657407,-6.115083 -8.688303,-0.05007 C 43.66991,55.896655 37.750094,54.810465 18.594341,49.678682 12.222919,47.971793 6.0976643,46.495283 4.9826653,46.397549 3.7184713,46.286732 2.889114,45.256823 2.9553953,43.665015 c 0.1119243,-2.687966 1.572078,-4.688394 3.298763,-5.443036 1.0369832,-0.45321 8.2290627,-1.138632 15.8537327,-3.166552 29.699148,-7.899023 31.502043,-6.781254 51.28707,-1.772167 6.461504,1.635896 13.942408,3.414988 17.256961,3.474566 5.106245,0.09178 6.211825,0.514653 7.240255,2.76932 0.66758,1.46355 1.21378,2.858905 1.21378,3.10079 0,0.241884 -2.89333,1.764397 -6.429613,3.383363 -12.984983,5.944723 -17.083271,9.093943 -12.855172,15.130399 1.753219,2.503069 1.718037,2.768923 -0.57922,4.37799 -1.345193,0.942203 -2.457238,2.856456 -2.471232,4.253898 -0.03777,3.776976 -2.424786,11.884847 -5.893734,15.080164 l -3.048923,2.808424 z m 6.632814,-34.658372 c 5.169656,-1.440693 8.302047,-3.07045 14.72913,-6.500861 -5.292267,-1.548658 -18.570782,-3.724097 -18.570782,-3.724097 -9.796513,-1.964547 -8.76916,-1.865132 -9.21348,0.29669 -0.176673,0.859598 -0.702644,2.763948 -1.872329,4.596663 -2.251474,3.527711 -10.489307,4.271075 -15.214327,2.009703 -1.482367,-0.709454 -2.971272,-3.416276 -2.950606,-5.336922 0.02911,-2.705486 -1.505386,-3.336055 -2.486689,-2.975309 -0.796428,0.292781 -3.384665,0.330004 -9.071284,1.864262 -18.784765,5.068157 -21.3552119,4.487473 -9.110967,6.223299 1.472409,0.208739 9.252992,2.381926 13.052028,3.39412 9.318588,2.482796 11.064717,2.665087 23.125496,2.414247 8.385835,-0.174409 11.891174,-0.675356 17.58381,-2.261795 z M 3.1063359,26.105424 c 0.2332478,-2.402238 0.3654331,-2.923686 7.0416541,-4.268589 3.824324,-0.770397 13.254667,-3.267083 20.956304,-5.548188 17.703937,-5.243628 22.73392,-5.256502 41.092202,-0.105175 7.923233,2.22326 16.798382,4.047803 19.72254,4.054541 4.567242,0.01054 6.941892,2.028476 6.941892,2.028476 2.101842,4.825342 1.718462,5.158474 -6.484103,5.158474 -5.714193,0 -10.641875,-0.963081 -18.245438,-3.565943 -5.783918,-1.979959 -14.023534,-3.83839 -18.526033,-4.178517 -8.215626,-0.620624 -8.20425,-0.622778 -33.594775,6.364055 -4.459996,1.227279 -10.621058,2.598547 -13.6912612,3.047266 l -5.5821654,0.81585 z"
     id="path1" />
</svg>
